<?xml version="1.0" encoding="utf-8"?>
<!-- Generator: Adobe Illustrator 25.0.0, SVG Export Plug-In . SVG Version: 6.00 Build 0)  -->
<svg version="1.1" xmlns="http://www.w3.org/2000/svg" xmlns:xlink="http://www.w3.org/1999/xlink" x="0px" y="0px"
	 viewBox="0 0 611.5 179.14" style="enable-background:new 0 0 611.5 179.14;" xml:space="preserve">
<style type="text/css">
	.st0{fill:#050033;}
	.st1{fill:#000000;}
	.st2{fill:#000000;stroke:#000000;stroke-width:0.1884;}
	.st3{fill-rule:evenodd;clip-rule:evenodd;fill:#000000;}
</style>
<g id="Fond">
	<g>
		<polygon class="st1" points="350.03,82.66 357.7,82.66 365.5,82.66 365.5,53.71 365.5,24.75 357.76,24.75 350.03,24.75 
			350.03,53.71 350.03,82.66 350.03,82.66 		"/>
		<path class="st1" d="M319.42,49.57h-16.21V37.91h16.21c4.63,0,6.95,2.73,6.95,5.87C326.37,47.01,324.05,49.57,319.42,49.57
			L319.42,49.57L319.42,49.57z M341.92,43.45c0-11.08-7.94-18.69-20.68-18.69h-33.5v57.9h15.47V62.39h5.63l17.62,20.27h19.19
			l-19.19-20.93C336.13,59.66,341.92,52.55,341.92,43.45L341.92,43.45L341.92,43.45z"/>
		<path class="st1" d="M389.16,54.2v-1.08c0-8.6,4.8-14.81,14.72-14.81h17.21V24.75h-18.53c-19.11,0-28.87,12.24-28.87,28.37v1.16
			c0,17.95,11.08,28.37,28.12,28.37h5.29l6.2-13.15h-9.1C394.95,69.51,389.16,64.29,389.16,54.2L389.16,54.2L389.16,54.2z"/>
		<path class="st1" d="M95.24,58.17l8.11-19.36l8.11,19.36H95.24L95.24,58.17L95.24,58.17z M93.58,24.75l-25.56,57.9h17.04
			l4.88-11.75h26.8l4.96,11.75h17.45l-25.56-57.9H93.58L93.58,24.75L93.58,24.75z"/>
		<polygon class="st1" points="179.61,61.23 166.38,24.75 142.06,24.75 142.06,82.66 157.28,82.66 157.28,40.97 172.58,82.66 
			186.31,82.66 201.62,40.97 201.62,82.66 216.84,82.66 216.84,24.75 192.76,24.75 179.61,61.23 179.61,61.23 		"/>
		<polygon class="st1" points="228.66,82.66 277.63,82.66 277.63,69.51 244.13,69.51 244.13,60.24 276.81,60.24 276.81,47.09 
			244.13,47.09 244.13,37.91 277.63,37.91 277.63,24.75 228.66,24.75 228.66,82.66 228.66,82.66 		"/>
		<path class="st1" d="M441.52,58.17l8.11-19.36l8.11,19.36H441.52L441.52,58.17L441.52,58.17z M439.86,24.75l-25.56,57.9h17.04
			l4.88-11.75h26.8l4.96,11.75h17.45l-25.56-57.9H439.86L439.86,24.75L439.86,24.75z"/>
		<polygon class="st1" points="531.44,60.08 507.86,24.75 488.34,24.75 488.34,82.66 503.72,82.66 503.72,46.01 528.04,82.66 
			546.74,82.66 546.74,24.75 531.44,24.75 531.44,60.08 531.44,60.08 		"/>
		<path class="st1" d="M480.55,118.81h-14.23c-3.06,0-5.29-1.82-5.29-4.63c0-2.73,2.23-4.55,5.29-4.55h25.72l6.04-13.15h-31.85
			c-13.15,0-20.68,7.78-20.68,18.2c0,10.92,7.28,17.29,18.61,17.29h14.23c3.14,0,5.29,1.82,5.29,4.63c0,2.81-2.15,4.63-5.29,4.63
			h-31.02v13.15h31.1c12.99,0,20.69-7.61,20.69-18.78C499.16,125.02,492.38,118.81,480.55,118.81L480.55,118.81L480.55,118.81z"/>
		<path class="st1" d="M359.49,121.3h-16.21v-11.66h16.21c4.64,0,6.95,2.73,6.95,5.87C366.44,118.73,364.12,121.3,359.49,121.3
			L359.49,121.3L359.49,121.3z M381.99,115.17c0-11.08-7.94-18.69-20.69-18.69h-33.5v57.9h15.47v-20.27h5.62l17.62,20.27h19.19
			l-19.19-20.93C376.2,131.39,381.99,124.27,381.99,115.17L381.99,115.17L381.99,115.17z"/>
		<polygon class="st1" points="390.09,154.38 439.07,154.38 439.07,141.23 405.56,141.23 405.56,131.97 438.24,131.97 
			438.24,118.81 405.56,118.81 405.56,109.63 439.07,109.63 439.07,96.48 390.09,96.48 390.09,154.38 390.09,154.38 		"/>
		<path class="st1" d="M298.69,122.37h-16.63v-12.74h16.63c4.63,0,6.95,2.9,6.95,6.45C305.64,119.56,303.32,122.37,298.69,122.37
			L298.69,122.37L298.69,122.37z M300.51,96.48h-33.92v57.9h15.47v-18.86h17.95c13.07,0,21.17-8.27,21.17-19.52
			C321.19,104.42,313.24,96.48,300.51,96.48L300.51,96.48L300.51,96.48z"/>
		<path class="st1" d="M537.43,118.81H523.2c-3.06,0-5.29-1.82-5.29-4.63c0-2.73,2.23-4.55,5.29-4.55h25.73l6.04-13.15h-31.85
			c-13.15,0-20.68,7.78-20.68,18.2c0,10.92,7.28,17.29,18.61,17.29h14.22c3.14,0,5.3,1.82,5.3,4.63c0,2.81-2.15,4.63-5.3,4.63
			h-31.02v13.15h31.1c12.99,0,20.69-7.61,20.69-18.78C556.04,125.02,549.26,118.81,537.43,118.81L537.43,118.81L537.43,118.81z"/>
		<polygon class="st1" points="142.1,154.38 191.07,154.38 191.07,141.23 157.57,141.23 157.57,131.97 190.24,131.97 190.24,118.81 
			157.57,118.81 157.57,109.63 191.07,109.63 191.07,96.48 142.1,96.48 142.1,154.38 142.1,154.38 		"/>
		<polygon class="st1" points="263.78,96.48 244.09,96.48 229.04,113.93 213.98,96.48 193.8,96.48 219.28,125.1 193.3,154.38 
			212.99,154.38 228.79,136.02 244.59,154.38 264.77,154.38 238.63,124.77 263.78,96.48 263.78,96.48 		"/>
	</g>
</g>
<g id="Logos">
</g>
</svg>
