<?xml version="1.0" encoding="utf-8"?>
<!-- Generator: Adobe Illustrator 25.0.0, SVG Export Plug-In . SVG Version: 6.00 Build 0)  -->
<svg version="1.1" xmlns="http://www.w3.org/2000/svg" xmlns:xlink="http://www.w3.org/1999/xlink" x="0px" y="0px"
	 viewBox="0 0 611.5 179.14" style="enable-background:new 0 0 611.5 179.14;" xml:space="preserve">
<style type="text/css">
	.st0{fill:#050033;}
	.st1{fill:#000000;}
	.st2{fill:#000000;stroke:#000000;stroke-width:0.1884;}
	.st3{fill-rule:evenodd;clip-rule:evenodd;fill:#000000;}
</style>
<g id="Fond">
</g>
<g id="Logos">
	<g>
		<g>
			<g>
				<path class="st1" d="M495.28,144.08c0.71,0.7,1.06,1.56,1.06,2.57c0,1.01-0.36,1.88-1.06,2.6c-0.7,0.72-1.57,1.07-2.57,1.07
					c-1.01,0-1.87-0.34-2.58-1.07c-0.7-0.72-1.05-1.58-1.05-2.6c0-1.01,0.35-1.87,1.06-2.57c0.71-0.72,1.57-1.08,2.57-1.08
					C493.72,143,494.57,143.36,495.28,144.08z M495.71,143.67c-0.83-0.82-1.83-1.23-3-1.23c-1.16,0-2.16,0.41-2.98,1.23
					c-0.82,0.82-1.23,1.82-1.23,2.98c0,1.17,0.4,2.18,1.22,3c0.83,0.83,1.83,1.24,3,1.24c1.17,0,2.17-0.41,3-1.24
					c0.82-0.84,1.24-1.83,1.24-3C496.95,145.48,496.53,144.5,495.71,143.67z M493.34,146.45c-0.18,0.07-0.44,0.11-0.78,0.11h-0.74
					v-1.69h0.7c0.45,0,0.78,0.06,0.99,0.17c0.2,0.12,0.31,0.35,0.31,0.68C493.82,146.09,493.65,146.33,493.34,146.45z M491,148.97
					h0.82v-1.83h0.64c0.44,0,0.75,0.04,0.92,0.13c0.29,0.18,0.44,0.53,0.44,1.07v0.37l0.01,0.16c0.01,0.02,0.01,0.04,0.02,0.06
					c0,0.01,0,0.03,0.01,0.05h0.76l-0.04-0.06c-0.02-0.04-0.03-0.12-0.04-0.24c-0.01-0.13-0.01-0.24-0.01-0.35v-0.34
					c0-0.24-0.09-0.48-0.26-0.72c-0.17-0.25-0.44-0.39-0.79-0.45c0.28-0.05,0.51-0.13,0.67-0.23c0.31-0.2,0.46-0.5,0.46-0.92
					c0-0.58-0.24-0.98-0.72-1.18c-0.27-0.11-0.69-0.16-1.27-0.16H491V148.97z"/>
				<g>
					<path class="st1" d="M272.94,137.83c-15.4-9.52-36.29-11.15-69.99-2.23c-35.92,8.09-47.9,13.26-63.63,2.88
						c-6.05-5.12-8.21-13.36-6.58-25.18c3.75-19.28,13.89-37.85,31.9-58.48c10.05-10.73,19.38-19.92,31.7-23.62
						c9.43-2.31,8.56,4.8,7.42,5.79c-1.21,0.02-3.23,0.2-4.79,1.19c-1.27,0.93-4.76,3.98-4.94,8.06c-0.28,6.28,6.5,4.96,9.42,1.53
						c3.15-3.87,7.8-11.32,4.14-18.21c-1.53-2.47-4.18-4.16-7.48-4.75c-11.27-0.65-21.78,4.51-31.46,10.19
						c-21.2,14.09-38.16,33.62-47.75,54.99c-5.53,12.89-10.54,31.39-3.03,46.4c5.79,10.45,17.84,15.97,32.2,14.79
						c10.08-0.97,22.26-4.11,30.46-5.99c8.2-1.89,50.15-15.7,63.94,8.32c0,0,4.58-8.51,16.04-8.68c9.42-0.82,23,2.62,32.9,9.57
						C290.08,149.62,280.74,142.64,272.94,137.83z"/>
					<path class="st1" d="M207.23,57.24c-7.85-4.91-23.61,4.49-36.25,20.64c-11.55,14.49-16.54,31.34-11.11,39.12
						c8.08,9.16,23.06-4.15,29.44-11.3l0.82-0.83c4.33-4.44,7.68-9.79,10.93-14.97c0,0,2.98-4.67,3.12-4.9
						c1.85-0.32,4.06-0.83,6.56-1.52c-0.03,0.08-9.56,15.42-8.59,23.01c0.3,2.32,0.06,10.82,8.71,13.39
						c11.53,1.84,20.73-6.69,28.85-14.3c0,0,1.38-1.28,2.16-2c-0.19,0.76-0.45,1.75-0.45,1.75c-3.37,11.25,1.17,13.61,4.02,14.48
						c8.6,2.37,18.87-9.56,18.9-9.57c-0.26,3.76-1.04,6.88,3.12,9.36c3.91,1.35,7.87-0.65,10.88-2.54
						c10.85-7.33,19.59-18.85,26.65-28.6h-4.49c-0.06,0.06-11.12,15.27-18.3,18.61c-0.01,0-1.31,0.59-2.07,0.1
						c-0.93-0.76-0.57-2.47,0.01-3.57c0.04-0.07,27.72-46.14,27.72-46.14h-13.07c0,0-1.42,2.3-1.55,2.47
						c-0.09-0.08-0.3-0.43-0.44-0.58c-8.1-10.75-26.44,5.76-40.26,24.88c-5.31,7.35-12.09,15.64-19.1,21.65
						c0,0-10.4,9.12-14.84,2.55c-1.62-2.75-1.12-6.75-0.21-9.4c5.17-14.12,14.09-26.9,24.23-34.61c2.87-2.12,5.98-2.74,7.52-1.85
						c1.48,0.87,1.71,2.92,0.78,4.34c-2.36-0.11-4.26,0.6-5.8,2.12c-3.03,3.06-4.08,6-3.12,8.75c4.69,6.35,14.02-6.26,13.57-13.91
						c-0.16-2.77-1.69-5.37-3.98-6.64c-3.42-1.97-8.62-1.44-12,0.11c-4.51,1.64-11.65,7.3-15.82,11.72
						c-5.24,5.56-14.25,11.71-17.06,11.02C207.63,77.7,215.22,62.82,207.23,57.24z M270.26,79.27c2.54-3.37,9.94-12.39,11.75-13.9
						c6.07-5.1,8.5-2.89,8.7-1.3c-5.66,9.73-12.34,20.83-18.63,30.83c0.01-0.02-1.97,2.85-1.97,2.85
						c-2.78,4.09-5.58,7.54-10.13,9.98c-0.64,0.17-1.73,0.24-2.44-0.23c-0.85-0.54-1.19-1.44-1.1-2.41
						C256.72,101.99,260.04,92.46,270.26,79.27z M199.13,85.12c0,0-0.11,0.28-0.16,0.4c-0.02,0.03-5.7,8.87-5.7,8.87
						c-3.43,4.4-7.72,9.9-13.07,12.56c-1.59,0.48-3.78,0.8-4.89-0.54c-2.38-2.69-1.15-6.47-0.16-9.49l0.36-1.09
						c2.85-7.42,7.37-13.93,11.76-19.95c0.05-0.05,0.17-0.09,0.21-0.08c0.01,0.01,0.03,0.04,0.04,0.09
						c2.75,5.09,7.93,7.43,11.8,8.51c0.03,0.03,0.05,0.06,0.05,0.13C199.36,84.63,199.3,84.79,199.13,85.12z M204.52,74.65
						c-0.02,0.04-2.53,5.57-2.53,5.57c-0.36,0.27-0.93,0.13-1.59-0.03l-1.13-0.18c-3.54-1.04-6.2-3.27-7.02-5.97
						c-1.13-5.22,3.52-9.29,5.58-10.79c1.96-1.31,5.02-1.98,6.81-0.63c1.09,1.23,1.51,2.81,1.51,4.55
						C206.15,69.53,205.39,72.17,204.52,74.65z"/>
					<path class="st1" d="M369.8,91.45c-1.26-2.61-4.25-4.27-7.44-4.11c-10.36,0.92-20.48,9.07-25.81,20.76
						c-2.8,6.02-4.31,10.97-5.31,18.84c3.23-3.54,9.79-9.35,17.25-12.55c0,0,1.02-7.55,6.18-14.32c1.96-2.77,5.88-7.25,10.27-6.08
						c3.85,1.25,2.49,11.44-2.61,21.27c-3.78,7.27-9.56,14.48-15.42,19.48c-5.17,4.21-12.83,9.27-19.52,5.36
						c-4.21-2.37-6.36-7.36-5.91-13.82c2.02-18.29,10.72-33.87,23.16-51.61c12.84-16.5,26.99-33.38,46.07-42.4
						c3.88-1.88,7.49-2.31,10.59-1.18c0,0-17.9,9.43-26.43,26.83c-2.16,4.42-5.19,10.41-2.14,15.7c1.59,2.76,4.4,2.97,6.67,2.84
						c10.47-2.33,17.22-11.66,22.75-20.21c3.19-6.52,6.04-12.95,6.04-20.11c0-0.88-0.05-2-0.13-2.91
						c5.01-2.51,15.24,1.97,15.24,1.97c8.02,2.51,25.07,15.01,30.81,17.41c2.82-3.13,7.41-7.81,10.02-10.19l-3.75-2.2
						c-6.02-3.5-12.38-6.86-18.64-10.12c-14.21-7.42-25.78-4.84-31.66-2.81c-2.32,0.81-4.43,1.48-4.43,1.48
						c-4.38-4.57-11.55-4.11-16.82-2.88c-18.99,5.2-36.63,17.91-55.52,39.97c-13.9,17.3-22.52,32.22-27.11,46.97
						c-3.54,9.91-4.62,24.5,4.02,33.15c7.35,7.35,17.1,5.76,23.98,3.12c14.91-7.03,28.3-22.15,34.98-39.6
						C370.78,104.34,372.59,97.02,369.8,91.45z M404.08,36.87c-1.97,21.66-19.56,34.36-23.92,35.36c-2.64,0.52-7.14-0.6-3.12-9.69
						c5.92-12.24,16.01-22.63,26.86-27.95C404.16,35.49,404.16,36.06,404.08,36.87z"/>
					<path class="st1" d="M508.47,39.62c-9.46,5.14-19.28,8.5-31.15,7.32c-3.3,3.52-6.5,7.19-9.46,10.98
						c16.67,4.04,34.35-4.98,44.2-13.57c10.4-8.64,15.73-19.55,15.73-19.55S519.98,33.37,508.47,39.62z"/>
					<polygon class="st1" points="329.6,57.42 317.18,57.42 310.17,68.78 322.58,68.78 					"/>
					<path class="st1" d="M477.26,138.96c-1.33,0.86-3.21,0.13-2.5-1.88c1.75-5.03,8.69-15.48,8.69-15.48l0,0l19.35-32.94h-13.26
						c-0.62,1.1-1.96,3.35-1.96,3.35c-0.62-0.97-2.45-3.13-3.21-3.59c-3.24-1.95-7.99-1.02-11.26,0.76
						c-14.24,7.96-24.65,23.72-32.83,36c0,0-8.63,13.65-13.42,14.68c-3.73,0.28-3.35-4.52-3.19-5.67c1.44-8.1,4.8-15.82,8.19-22.82
						c6.88-4.54,14.73-10.54,21.87-17.07c15.49-14.18,28.55-30.2,30.46-33.81c0,0-2.07,0.4-4.52,0.46
						c-11.9,15.93-36.28,39.02-43.68,42.45c3.28-7.53,24.43-43.47,42.42-60.67l2.84-2.62c4.38-4.09,8.92-8.3,12.46-8.97
						c0.37-0.06,0.85-0.03,1.27,0.82c0.16,3.2-1.08,5.53-2.49,8.24l-1.99,3.91c0,0,2.82-0.51,4.67-1.11
						c2.14-3.88,4.53-8.22,3.66-13.41c-0.3-1.64-1.54-2.9-3.2-3.21c-5.37-0.97-11.24,2.83-15.93,5.89l-0.19,0.13
						c-24.2,18.13-44.65,44.29-62.51,79.99c-1.3,0.96-6.3,2.05-7.15,1.51c1.77-3.44,3.98-8.14,5.09-13.22
						c0.2-1.43,0.37-2.91,0.37-4.36c0-3.11-0.79-6.08-3.69-8.08c-3.43-1.63-7.66-0.89-10.5,0.36c-12.79,5.09-22.34,17.6-29.22,27.93
						c-3.7,6.54-7.39,13.57-8.42,21.6c-0.72,6.31,0.75,10.38,4.49,12.41c3.86,1.85,8.69-0.09,10.6-1.01
						c12.95-6.54,21.99-19.61,29.12-31.58c0.28-0.03,4.17-0.1,7.11-0.86c0.04,0.01,0.06,0.04,0.13,0.06
						c-0.17,0.51-1.68,4.89-1.68,4.89c-4.52,12.66-6.61,21.28-2.34,26.39c6.1,7.22,16.2-0.25,24.4-10.11
						c-1.75,11.82,4.64,13.69,9.52,12.78c5.59-1.46,11.84-7.18,14.73-10.11c-0.93,3.45-0.67,9.57,4.42,10.19
						c3.49,0.61,6.1-1.06,9.13-2.64c10.84-5.63,23.83-24.58,27.2-29.79h-4.42C491.03,125.51,484.94,134.64,477.26,138.96z
						 M379.91,137.59c-0.69-1-0.92-2.11-0.94-3.28c-0.13-7.11,7.84-19.72,13.49-26.81c0.01,0,0.01,0,0.01,0
						c2.36,5.28,7.71,8.2,10.94,9.54C399.4,125.57,385.64,143.95,379.91,137.59z M405.67,113.28c-0.38,0.24-7.12-1.93-8.41-7.91
						c-1.11-5.13,2.59-9.17,6.18-11.18c1.53-1.16,3.84-1.56,5.55-0.99c1.57,1.04,1.99,2.85,1.99,4.78c0,1.19-0.16,2.43-0.3,3.56
						c0,0-0.02,0.21-0.02,0.26C409.52,105.8,407.79,109.76,405.67,113.28z M459.78,135.3c-0.01,0.01-1.28,1.07-1.28,1.07
						c-1.81,1.58-3.69,3.22-5.94,2.38c-0.63-0.21-1.06-0.98-1.17-1.62c-0.11-4.44,2-8.59,4.03-12.61l0.52-1.03
						c5.85-9.37,12.64-20.37,22.63-28c1.68-1.16,3.51-2.12,5.44-1.37c0.44,0.39,0.96,1.09,0.96,1.77c0,0.23-0.19,0.79-0.32,0.99
						c-2.78,4.3-5.44,8.8-8.01,13.16C471.56,118.63,466.32,127.5,459.78,135.3z"/>
				</g>
			</g>
		</g>
	</g>
</g>
</svg>
