<?xml version="1.0" encoding="utf-8"?>
<!-- Generator: Adobe Illustrator 25.0.0, SVG Export Plug-In . SVG Version: 6.00 Build 0)  -->
<svg version="1.1" xmlns="http://www.w3.org/2000/svg" xmlns:xlink="http://www.w3.org/1999/xlink" x="0px" y="0px"
	 viewBox="0 0 611.5 179.14" style="enable-background:new 0 0 611.5 179.14;" xml:space="preserve">
<style type="text/css">
	.st0{fill:#050033;}
	.st1{fill:#000000;}
	.st2{fill:#000000;stroke:#000000;stroke-width:0.1884;}
	.st3{fill-rule:evenodd;clip-rule:evenodd;fill:#000000;}
</style>
<g id="Fond">
</g>
<g id="Logos">
	<g>
		<g>
			<g>
				<polygon class="st1" points="25.93,113.55 103.05,113.55 98.84,119.28 25.93,119.28 25.93,113.55 				"/>
				<polygon class="st1" points="25.93,102.91 110.88,102.91 106.67,108.63 25.93,108.63 25.93,102.91 				"/>
				<polygon class="st1" points="25.93,124.19 95.22,124.19 91.03,129.88 25.93,129.88 25.93,124.19 				"/>
			</g>
			<g>
				<polygon class="st1" points="596.18,119.28 519.36,119.28 523.57,113.55 596.18,113.55 596.18,119.28 				"/>
				<polygon class="st1" points="596.18,129.88 511.55,129.89 515.74,124.19 596.18,124.19 596.18,129.88 				"/>
				<polygon class="st1" points="531.4,102.91 596.18,102.91 596.18,108.64 527.19,108.64 531.4,102.91 				"/>
			</g>
		</g>
		<g>
			<path class="st1" d="M100.63,129.88l36.59-49.72c0,0,40.57,0,45.41,0c5.02,0,4.95,1.91,2.5,5.23c-2.49,3.37-6.73,9.18-9.27,12.6
				c-1.29,1.74-3.62,4.91,4.1,4.91c8.16,0,60.83,0,60.83,0c-5.06,6.93-21.47,26.98-50.94,26.98
				C165.98,129.88,100.63,129.88,100.63,129.88L100.63,129.88z"/>
			<path class="st1" d="M310.2,102.9l-19.84,26.98h-52.35c0,0,19.83-26.98,19.85-26.98L310.2,102.9L310.2,102.9z"/>
			<path class="st1" d="M385.9,102.91l-19.85,26.98h-52.33c0,0,19.84-26.98,19.85-26.98H385.9L385.9,102.91z"/>
			<path class="st1" d="M402.92,102.91c0,0-3.82,5.23-5.68,7.74c-6.57,8.88-0.76,19.23,20.69,19.23c24.77,0,84.04,0,84.04,0
				l19.85-26.98H402.92L402.92,102.91z"/>
		</g>
		<g>
			<path class="st1" d="M126.22,49.25L108,74c0,0,94.45,0,99.29,0c5.02,0,4.95,1.91,2.5,5.23c-2.49,3.37-6.66,9.24-9.2,12.67
				c-1.29,1.74-3.62,4.91,4.1,4.91c8.16,0,40.61,0,40.61,0s6.54-8.91,12.03-16.35c7.46-10.13,0.65-31.2-26.04-31.2
				C207.41,49.25,126.22,49.25,126.22,49.25L126.22,49.25z"/>
			<polygon class="st1" points="390.39,96.8 262.36,96.8 297.37,49.25 349.7,49.25 329.63,76.51 352.99,76.51 373.07,49.25 
				425.39,49.25 390.39,96.8 			"/>
			<path class="st1" d="M497.86,49.25l-35,47.56h-55.45c0,0,35.01-47.56,35.03-47.56H497.86L497.86,49.25z"/>
		</g>
	</g>
</g>
</svg>
