<?xml version="1.0" encoding="utf-8"?>
<!-- Generator: Adobe Illustrator 25.0.0, SVG Export Plug-In . SVG Version: 6.00 Build 0)  -->
<svg version="1.1" xmlns="http://www.w3.org/2000/svg" xmlns:xlink="http://www.w3.org/1999/xlink" x="0px" y="0px"
	 viewBox="0 0 611.5 179.14" style="enable-background:new 0 0 611.5 179.14;" xml:space="preserve">
<style type="text/css">
	.st0{fill:#050033;}
	.st1{fill:#OOOOOO;}
	.st2{fill:#OOOOOO;stroke:#OOOOOO;stroke-width:0.1884;}
	.st3{fill-rule:evenodd;clip-rule:evenodd;fill:#OOOOOO;}
</style>
<g id="Fond">
</g>
<g id="Logos">
	<g>
		<polygon class="st1" points="78.44,50.68 75.05,58.35 80.78,64.89 53.35,128.69 104.18,128.69 109.6,115.96 85.91,115.96 
			113.99,50.66 		"/>
		<path class="st1" d="M254.19,50.66c-25.71,0.18-36.59,18.21-42.55,30.85c-17.05,36.18,10.12,46.68,16.24,48.03
			c3.87,0.85,8.76,0.96,13.45,0.11l2,3.73h14.31l-4.5-6.88c12.15-4.22,21.71-14.25,26.86-25.13
			C285.15,90.48,300.22,51.51,254.19,50.66 M235.46,115.67c-10.41,0.01-7.42-7.6-5.95-11.09l15.44-36.02c1.81-4.06,5.56-5.85,9.25-6
			c5.87-0.25,11.61,3.61,9.41,9.04l-17.69,41.46l-2.75-4.3l-8.64,4.78L235.46,115.67z"/>
		<path class="st1" d="M288.45,101.44c-6.57,14.34,2.95,27.53,24.14,27.71c21.84,0.18,29.23-13.37,31.53-19.01l25.29-59.46h-13.96
			l-25.29,58.81c-4.43,8.7-24.14,7.89-18.56-3.22l23.81-55.59h-33.73l-3.39,7.67l5.73,6.53L288.45,101.44z"/>
		<polygon class="st1" points="377.36,128.69 411.03,50.68 376.69,50.68 373.29,58.35 379.03,64.89 351.6,128.69 		"/>
		<path class="st1" d="M481.62,79.45c4.11-10.55,1.31-28.77-15.11-28.77h-46.98l-3.39,7.67l5.73,6.53l-27.43,63.81h25.92
			l11.83-27.16h24.95C469.14,101.54,477.63,89.72,481.62,79.45 M456.83,78.64c-1.15,2.27-4.43,9.91-9.36,9.91h-9.57l10.84-25.01
			h6.61C461.75,63.53,457.98,76.36,456.83,78.64"/>
		<polygon class="st1" points="211.01,63.83 217.02,50.69 192.25,50.69 191.25,45.75 173.36,45.75 169.14,50.69 157.77,50.69 
			154.38,58.35 160.11,64.89 132.69,128.69 183.1,128.69 188.68,115.85 164.05,115.85 173.58,93.74 198.21,93.74 203.13,82.04 
			178.67,82.04 186.55,63.83 		"/>
		<polygon class="st1" points="493.42,50.68 490.03,58.35 495.76,64.89 468.33,128.69 518.74,128.69 524.33,115.85 499.69,115.85 
			509.22,93.74 533.85,93.74 538.78,82.04 514.31,82.04 522.19,63.83 546.66,63.83 552.66,50.68 		"/>
		<path class="st1" d="M121.86,50.68l-3.39,7.67l5.73,6.53l-6.46,15.65c17.41-4.1,26.28-17.55,28.57-29.87L121.86,50.68z"/>
	</g>
</g>
</svg>
