<?xml version="1.0" encoding="utf-8"?>
<!-- Generator: Adobe Illustrator 25.0.0, SVG Export Plug-In . SVG Version: 6.00 Build 0)  -->
<svg version="1.1" xmlns="http://www.w3.org/2000/svg" xmlns:xlink="http://www.w3.org/1999/xlink" x="0px" y="0px"
	 viewBox="0 0 611.5 179.14" style="enable-background:new 0 0 611.5 179.14;" xml:space="preserve">
<style type="text/css">
	.st0{fill:#050033;}
	.st1{fill:#000000;}
	.st2{fill:#000000;stroke:#000000;stroke-width:0.1884;}
	.st3{fill-rule:evenodd;clip-rule:evenodd;fill:#000000;}
</style>
<g id="Fond">
</g>
<g id="Logos">
	<g>
		<path class="st3" d="M270.52,61.42v64.81h13.89V90.35c2.88,2.11,20.96,34.64,24.3,35.88h10.99c2.38-0.43,3.51-2.4,3.47-5.79V59.49
			h-14.47c0,7.65-0.69,28.55,0.58,34.91c-1.57-0.57-1.03,0.01-3.45-4.08l-9.54-14.77c-9.01-14.26-7.83-15.88-24.05-15.88
			C270.92,59.68,270.52,60.09,270.52,61.42"/>
		<path class="st3" d="M527.75,126.04h13.78l-0.47-35.88c3.32,2.22,15.32,25.4,24.88,35.88h10.27c2.64-0.35,3.61-1.55,3.66-5.17
			c0.11-7.79-1.24-53.15-0.11-55.8c0.65-2.15,1.96-2.38,2.63-2.57l0.14-3.01h-16.59v34.72c-1.6-1.17-18.43-28.21-18.85-28.61
			c-2.32-3.6-5.55-5.84-10.09-6.11h-9.26V126.04z"/>
		<path class="st3" d="M399.57,61.42v61.34c0,2.13,2.18,3.08,5.17,3.47h13.35V98.46c2.41,0.64,0.98,0.3,3.7,4.4l10.18,15.86
			c3.84,5.47,6.14,7.1,10.73,7.52h12.64c1.02-0.01,2.11-0.01,3.26,0c-0.48-2.07-23.66-37.4-24.88-39.35
			c0.88-0.59,4.98-5.31,5.79-6.37c1.94-2.54,4.12-4.03,6.12-6.61c1.29-1.66,1.73-1.94,2.96-3.4l8.27-10.82
			c-19.56,0-15.8-2.54-30.84,15.45c-1.95,2.33-5.5,5.93-7.93,7.69V59.68H401.3C399.97,59.68,399.57,60.09,399.57,61.42"/>
		<path class="st3" d="M174.45,120.45c-0.21,4.26,1.88,5.65,6.37,5.79h33.57c2.24-0.03,3.57-1.42,4.05-4.05v-8.1h-21.99
			c-1.99,0.12-3.23-0.56-3.47-2.32V97.88h20.25V85.15h-20.25V72.41h25.46c0-6.8,1.46-11.47-3.47-12.73h-40.51V120.45z"/>
		<path class="st3" d="M234.64,123.34c0,1.87,2.1,2.9,4.05,2.9h13.89V59.68h-17.94V123.34z"/>
		<path class="st3" d="M341.09,120.45c-0.21,4.26,1.88,5.65,6.37,5.79h33.56c2.25-0.03,3.57-1.42,4.05-4.05v-8.1h-21.99
			c-1.99,0.12-3.23-0.56-3.47-2.32V97.88h20.26V85.15h-20.26V72.41h25.46c0-6.8,1.46-11.47-3.47-12.73h-40.51V120.45z"/>
		<path class="st3" d="M467.62,120.45c-0.21,4.26,1.88,5.65,6.37,5.79h33.56c2.25-0.03,3.57-1.42,4.05-4.05v-8.1h-21.99
			c-1.99,0.12-3.23-0.56-3.47-2.32V97.88h20.25V85.15h-20.25V72.41h25.46c0-6.8,1.46-11.47-3.47-12.73h-40.51V120.45z"/>
		<path class="st3" d="M104.64,65.86l-0.25,59.39h18.09V96.5l15.69-0.03l-0.06,28.78h17.94V59.49h-17.94v23.73
			c0.09,1.11-0.48,1.81-1.73,1.74h-12.15c-1.16,0.03-1.73-0.57-1.74-1.74V59.49h-20.83C101.37,63.91,104.77,61.97,104.64,65.86"/>
		<path class="st3" d="M76.59,47.36l12.71,9.47l-4.99,17.29c-4.94,3.5-9.98,7.01-14.8,10.52c-1.85,0.59-1.83-0.96-0.89-3.56
			L77,54.51c-8.38-6.24-16.76-12.48-25.14-18.72c-0.84-0.7-0.74-1.76,1.61-1.78l30.49,0.36c3.09-9.45,6.18-18.9,9.27-28.35
			c0.63-1.79,1.8-1.51,2.32-0.18l9.27,28.88h31.3c0.88-0.01,1.06,0.67,0.4,1.18l-15.3,10.94h-17.29l-4.75-14.67
			c-0.32-0.84-0.86-0.82-1.15,0.02l-4.98,14.47l-16.31,0.08C75.99,46.73,76,47.01,76.59,47.36"/>
	</g>
</g>
</svg>
