<svg id="Livello_1" data-name="Livello 1" xmlns="http://www.w3.org/2000/svg" width="146.22mm" height="146.22mm" viewBox="0 0 414.47 414.47">
  <defs>
    <style>
      .cls-1 {
        fill: #000;
      }
    </style>
  </defs>
  <g>
    <path class="cls-1" d="M173.53,201.78h-.32c-2.88,5.16-5.05,10.63-8,15.73a4.56,4.56,0,0,0,.59-.2l.08.23a35.66,35.66,0,0,0,7.43,1.66l-.16,0C173.92,213.81,174.58,207.16,173.53,201.78Z"/>
    <path class="cls-1" d="M165.17,217.53h0s0,0,0,0Z"/>
    <path class="cls-1" d="M124.88,158.47H125l-.19,0Z"/>
    <path class="cls-1" d="M314.75,210.91c-.16.74-5.75,11.5-5.9,11.5-.15.71-.87,1.27-.81,1.59H308l.42.17c1.11-1,2.25,1.35,2.78-.28-.22-.48,1.81-.3,4.35.38L315,210.92Z"/>
    <path class="cls-1" d="M0,0V414.47H414.47V0ZM279.8,131.43c-.69-1.39,1.31-1.38.6-2.78.47-.72,1-1.68,1.58-2.46a3.44,3.44,0,0,1,1.25-2.58c.9,0,1-1.14,1.56-1.74a8.32,8.32,0,0,1,3.86.21c6.34-1.76,13.42-.07,18.54,3.17,1.85,2.13,2,4.84,3.35,7.15-.07,1.26.82,2.6-.35,3.62-.78.47-.85,2.54-1.43,1.93-.38-.18-.51,1.21-.71,1.33-.65.6-.92,2-1.89,1.77-5.19,3.54-6.89,6.62-21,3.31-.27.3-2.93-2.93-3.31-2.87-.43-2.12-2.56-3-2-5.17-.95-.86.73-1.75-.75-2.43-.51-.54.53-.83.14-1.45l-.89-.72C278.9,131.66,279.48,132.09,279.8,131.43ZM78.57,124c-1.13-3.51,3.35-3.19,4.9-4,5-1.66,14.76-2,21.26,1.32.79,0,4.6,9.29.35,14.26l-4.25,3.65c-7.61,4.23-16.93,1.43-23.6-2.19a7,7,0,0,1-1.54-1.16c.14-1.09-.69-2.48-.61-3.62C78.32,130.05,75.07,125.86,78.57,124Zm-9,101.88-3.3,9.33c-.12-.24-.38-.85-.77-.42-1.77,1.53-3.3,1.66-3.88,1.29-1.17,1.2-.74,4-3,3.9l-1.91,3.22-.15.07h-.1c-2,2.34-1.66,5.6-3.94,7.75.12,1-.24.8-.7.86l-.27.07c-.31.1-.31.45-1,.54s-.77.22-1,.4-.31-.1-.65.15a1.09,1.09,0,0,0-.32,1c.07.2.37.35.41.63A1.56,1.56,0,0,1,47.77,256l-.16,0c-1.39-.21-.54,2.41-2.15,2.34-.53-5.68.37-11.53.61-17.25,1.54-19.66,7.88-37.72,15.21-54.74L75.9,158.79c2.76-4.81,4.88-11.13,11.28-13.25,3.93.27,5.9,3.79,8.58,6.35a30.73,30.73,0,0,1,2.1,10.39c-2,12-8.52,22.26-13.46,33.09C79.8,205.41,69.54,225.84,69.54,225.84Zm47.8-11.57c-2.08,3.1-5.28,8.06-6.6,11.61-2.41,1.72-1.89,3.72-3.33,5.82a11.51,11.51,0,0,0-2.38,5l.46-.29c1.85.59-4,4.73-4,4.73l-.75.76-.35,0c-.23,0-.32-.67-.57-.74-4.21,1.84-4,2.64-6.25,5.45-1-.49-4,2.36-4.22,2.65-.57.84-.7,1.13-2,4.6-.64,2-1.19-.07-.85-.79-.82-10.06.25-17.92,4-28l7.92-20.69L113.37,177c3.87-8.91,7.5-15.15,9.07-18.87l.18,0a26.4,26.4,0,0,1-5.7-1.63,50.6,50.6,0,0,1-10-1.23c-4-2-4.13-6.5-3.64-9.87l-.9-1c.6-1.75,3.69-1.3,4-1.3,0,0,8.61-3.43,13.38-3.93l.77-.12c13.31-2.55,27-.56,40.38-2.45,4.38.28,9.29-.41,12.22,2.7.84.43,1.87.37,2.64,1-.27,1.33-3.37,2-2.35,3.3.24,1.57-1.83,2.34-1.78,3.61-.57.12-.65.84-.59,1.44.26.07-1.1.48-2.08,1.32l.32.42c-.45,1.08-3.09.28-2,1.85-.09,1-2.72,1-4.67,2.44-5.61,1.59-12,1.41-17.68,2.88,0,0-6.65.54-6.65.66l-1,.06c-1,10.36-4.55,18.38-8.18,27.94.06.17-.49,2.1-.36,2.1-.93,2.53-3.64,9.51-3.64,9.51-1.84,4-4,7.95-5.6,12A41.38,41.38,0,0,0,117.34,214.27Zm72,45.07c-.19,1.19-.06,4.06-1.29,4.9l-.14.72a7.53,7.53,0,0,0-1.56,1.55c-.08.95-.31.87-.32.87s-.13,0-.14-.07c-.12-1.51-.47-2.35-2.16-4h-.15l-.11.05-.07.07-.12.36c-.75,3.81-.15,7.56-.78,9.18h0s0,0,0,0c-1-1.13-2.42.25-2.42.25a8.25,8.25,0,0,0-1.67,3.61c-.12.27-.37-.19-.39-.07-1.19-3.15-3-7.53-3.51-11-1.47-9.25-1.71-18.51-2.63-27.57-4.94-1.37-10.85-2.62-16.18-4.29l-.81-.41c-1.18,2.34-4.21,4.45-5.71,6.73-1.48-1.1-3.22-.57-4.65.2-1.95,1.61-1.95,2.34-4.25,4.67l-.43.36-.91-.13c-.06-.18.13-.48-.18-.6h-.46c-3.25,3.41-4.77,5.54-6.56,6l-.32-.31-2.69,3.68-.52-.91a12,12,0,0,0,.08-1.63c.18-1.48.44-.68,0-2.12-.45-1.14-.74-3.57-3.06-3.53-.85.12-1.15-1-1.15-1,2-2.7,2.76-7.17,2.88-7.42,2.31-4.59,4.11-9.92,7.09-14.14l.08,0a40.13,40.13,0,0,1-4.77-3.41c-.05-1.69-2.43-2.8-2-4.78a6.45,6.45,0,0,1-1.11-2.71v-.45a6,6,0,0,1-.11-1.46c.89-1.86,4.64-2.45,6.44-2.32.85-1.19,3-1,3.57-2.44,1.3-.53,2.24,1.71,3.54.33,1.38,2.14,3.25,2.21,5,2.67,9.05-10,13.81-21.79,21.19-32.59,3.41-5.4,8.57-10.93,12.8-16,1.36-.35,2.47-2.27,3.76-1.53.64.12,1.34,1.15,1.95.43l1.08,1c.83-.3,2.63-.1,2.49,1.16l1,.43a1.39,1.39,0,0,1,.16.7c2.15,10.29,5.32,20,5,31.21-.1,10.74-.42,24.13-.42,32.65l0,0,0,0,1,.43c1.22.73,4.45,3.72,6.07,2.65,1,.61,2.11-.59,2.23.4-.65.66-.36,1.55-1,2.27-2,1.59-1.6,2.56-1.59,2.59,1.12.5.94,2.89.94,2.89.77.59-2,1.55-2,1.55-.33.91-1.1.48-1.75,1a31.32,31.32,0,0,1-5.26.85C191,246.7,190.35,252.78,189.32,259.34ZM248,245.91c-.71,1.08-.95,3-2.5,3.66-.26.54.45.84.77,1,.18,1.09-1.89,2.22,0,2.89.13.11,0,.29-.07.46-.71.74.53,1,.49,2-.18.26-.33.28-.52.22-3.45,1.56-6.32,5-10.68,4.76-6.38,0-13,.14-19.22,1.42-4.07.81-8.57.05-12.2,1.1-3.36,1.06-4.22-3.29-7.12-3.68a7.41,7.41,0,0,1,0-2.35,1.92,1.92,0,0,1-.43-1.57l.77-.72a2.76,2.76,0,0,0,.33-.6c.26.43.46-.18.78-.11.52-.48-.63-2.19,1.11-1.75.82-.62,1.66-1.2,2.51-1.74,2.67-16.26,10.18-31.42,15.86-46.51,4.88-12.69,12.72-24.27,18.58-36.6,1-2.29,4.42-3.47,4.12-6.06.64-.6,1.15.61,1.67-.11,1.23.25,4.44,1,5.92.76,4.54,4.2-1.56,8.61-.31,13.15,2.06,7.44-3.93,14-6.69,20.24L231.7,218.9s-1.14,2.58-1.78,4a1.27,1.27,0,0,1-.11.28c-.52,1.18-.32.7.11-.28,0-.35-6.61,11.74-10.73,19.25,4.95-1.66,10.2-1.94,15.68-2.55,2.83-.4,5.53,1.31,8.62,1.21,2.45.62,3.52,2.8,4.92,4.39C248.32,245.66,248.15,245.63,248,245.91Zm12-7.21c-.52-.31-.83-.91-1.54-.85-2.77,0-3.77,4.07-6.86,2.53a2.84,2.84,0,0,1-1.88,1c-.57-.78.22-1.75.22-2.65-1.5-11.66,4.58-21,5.84-31.94,2.59-8.43,8.08-15.69,11.51-23.8,4.33-8.72,7.89-17.68,12.16-26.4.78-.84,1.25-2.22,2.54-2,.14-1.15,1.67,0,1.81-1.25,1,.12,1.43-1.68,2.33-.59l.77.61c.64-.29.27-1.45,1.3-1.43a43.78,43.78,0,0,0,3.31,4.19,76.18,76.18,0,0,1-2.38,28.1c-2.71,14-10.94,25.92-18.47,38.05-1.8,5.78-7.12,10.14-9.75,15.61Zm106.6,18.82c-1.41-.13-2.59.82-4,.21a2,2,0,0,0-2.05,1.61l.29.73c.12,1.21-1.3,1-2,1-7.18.72-14-1.46-20.86-3.57a14.84,14.84,0,0,0,.41,3.41c.05.31-.26,8.93-.23,8.95.25,1.57-.85,1.44-1.42.41-.41,1.51.29,3.81-1.28,5.06,0,0,.14-.78-1.55.83-.62,4.41-.21,10.53-2.56,12.9L328.54,292l-.25.07c-1.58-1.4-.81,1.56-1.23,1.32l-.46.12a.73.73,0,0,0-.81-.07s-1.52,1.08-2,.77l.05-5.61-.45-.49a20.45,20.45,0,0,0-1-6.76c-.26.3-2.46-11.6-3.74-18.36-.62-3.3-.71-7.3-1.81-10.88-5-1.48-10.66-3.21-15.44-4.1-1.55-.34-1.67-.28-10.14-4.84L291,243a93.28,93.28,0,0,0-7.84,8.53c-2,2.47-3.67,5.29-5.56,7.62-.35.2-.49.25-.76-.22-2.09-.47-4.46,3.84-5,3.07-.69-1.7-.27-7.39.52-9,.09-.41.16-1-.1-1.27-.66,1.17-3.05,1.28-2.91.7a39.58,39.58,0,0,1,1.92-7.5c-.12.39,2.37-5.06,4.88-8.86l.21-.35,1.08-1.77a3.11,3.11,0,0,1-.67-2.77c-1-1.87.75-4,.06-6,.9-.23.2-1.38.66-2,1.05-.71,5.29-4.22,9-3.87h0s0,0,0,0h0c8.43-13,19.91-25.7,27.32-39.39,4.3-4.49,6.1-11.24,12.31-13.66,1.66-.76,1.82-1.86,3-1.85.24.85,1.6.92,1.52,1.89.46.24.32,1.15.76,1.63.39.3.33.73,1.1.55l1.59,1.61,1.14,2c.81,10,1.24,20.23,1.14,30.6.21,4.83,1.2,6.94,1.2,14.56a72.73,72.73,0,0,0,.4,7.91c0,1.45,0,5,0,5.2a55.29,55.29,0,0,1,10.15,2.38c2.7,1.11,5.36.22,7.39,2.66l1.11,0,.31.1c2.38.44,4.88,2.51,7.06,4,2.62,1.83,4.79,5.6,4.53,7.7-1.06,2.59,0,7.81.55,8.13C369.78,255.83,367.39,257.47,366.55,257.52Z"/>
  </g>
</svg>
