<?xml version="1.0" encoding="utf-8"?>
<!-- Generator: Adobe Illustrator 25.0.0, SVG Export Plug-In . SVG Version: 6.00 Build 0)  -->
<svg version="1.1" xmlns="http://www.w3.org/2000/svg" xmlns:xlink="http://www.w3.org/1999/xlink" x="0px" y="0px"
	 viewBox="0 0 611.5 179.14" style="enable-background:new 0 0 611.5 179.14;" xml:space="preserve">
<style type="text/css">
	.st0{fill:#050033;}
	.st1{fill:#000000;}
	.st2{fill:#000000;stroke:#000000;stroke-width:0.1884;}
	.st3{fill-rule:evenodd;clip-rule:evenodd;fill:#000000;}
</style>
<g id="Fond">
</g>
<g id="Logos">
	<g>
		<g>
			<path class="st3" d="M300.87,90.39h-6.58v26.61l6.58,0.01c4.26,0,4.26-2.89,4.26-13.24C305.13,93.43,305.13,90.39,300.87,90.39z"
				/>
			<path class="st3" d="M300.21,62.64h-5.91v22.17l5.91,0.01c3.94,0,4.93-0.67,4.93-11.02C305.13,63.46,304.15,62.64,300.21,62.64z"
				/>
			<path class="st3" d="M198.4,10.75v157.63H390.2V10.75H198.4z M257.84,56.4l-10.01,22.82L237.81,56.4H257.84z M247.83,81.65
				c3.46,0,6.27,2.81,6.27,6.28c0,3.46-2.81,6.27-6.27,6.27c-3.46,0-6.27-2.81-6.27-6.27C241.56,84.46,244.37,81.65,247.83,81.65z
				 M275.25,110.91c0,6.57-4.27,12.48-16.42,12.48c-12.15,0-16.42-7.72-16.42-12.48v-9.52h10.83v11.49c0,3.08,2.5,5.59,5.59,5.59
				c3.08,0,5.58-2.58,5.58-5.67l0-56.41h10.84V110.91z M315.97,78.4c0,3.29-2.87,9.11-7.15,9.11c4.27,0,7.15,3.7,7.15,6.49v19.78
				c0,3.36-2.71,8.62-10.84,8.62h-21.67V56.4h21.67c4.19,0,10.84,3.45,10.84,10.76V78.4z M356.69,122.41h-32.84V56.4h10.84
				l0.01,56.49c0,3.08,2.5,5.59,5.58,5.59c3.08,0,5.58-2.51,5.58-5.59l0-11.49h10.84V122.41z"/>
		</g>
		<path class="st1" d="M402.02,167.5c1.49,0,2.9-0.58,3.95-1.63c1.06-1.06,1.64-2.46,1.64-3.96c0-1.49-0.58-2.89-1.64-3.95
			c-1.05-1.07-2.46-1.64-3.95-1.64c-3.09,0-5.59,2.52-5.59,5.59c0,1.5,0.58,2.91,1.63,3.96C399.12,166.92,400.52,167.5,402.02,167.5
			L402.02,167.5z M397.37,161.91c0-1.24,0.48-2.41,1.36-3.29c0.88-0.88,2.05-1.36,3.29-1.36c1.24,0,2.41,0.48,3.29,1.36
			c0.88,0.88,1.36,2.04,1.36,3.29c0,2.57-2.08,4.66-4.65,4.66c-1.24,0-2.41-0.49-3.29-1.37
			C397.84,164.32,397.37,163.16,397.37,161.91"/>
		<path class="st1" d="M404.77,164.51c-0.08-0.03-0.14-0.13-0.18-0.28c-0.03-0.1-0.05-0.26-0.05-0.48l-0.03-0.8
			c-0.01-0.38-0.09-0.65-0.22-0.82c-0.1-0.13-0.23-0.22-0.37-0.31c0.18-0.13,0.36-0.27,0.47-0.45c0.16-0.25,0.24-0.57,0.24-0.95
			c0-0.75-0.31-1.26-0.92-1.53c-0.31-0.15-0.71-0.22-1.18-0.22h-2.89v6.23h1.08v-2.55h1.69c0.31,0,0.54,0.04,0.67,0.1
			c0.22,0.11,0.34,0.33,0.35,0.66l0.05,0.99c0.01,0.25,0.02,0.4,0.04,0.49c0.02,0.1,0.04,0.17,0.08,0.24l0.04,0.07h1.2v-0.36
			L404.77,164.51L404.77,164.51z M403.53,160.5c0,0.35-0.09,0.58-0.27,0.71c-0.2,0.13-0.47,0.19-0.82,0.19h-1.73v-1.75h1.84
			c0.25,0,0.45,0.03,0.59,0.1C403.41,159.88,403.53,160.13,403.53,160.5"/>
	</g>
</g>
</svg>
