<svg xmlns="http://www.w3.org/2000/svg" xmlns:xlink="http://www.w3.org/1999/xlink" viewBox="0 0 27.09 28.97"><defs><style>.cls-1{fill:url(#Dégradé_sans_nom_6);}</style><linearGradient id="Dégradé_sans_nom_6" x1="-284.24" y1="421.44" x2="-283.53" y2="420.77" gradientTransform="matrix(27.09, 0, 0, -28.97, 7704.54, 12221.32)" gradientUnits="userSpaceOnUse"><stop offset="0" stop-color="#ff4e0d"/><stop offset="0.3" stop-color="#d9360b"/><stop offset="0.57" stop-color="#be2809"/><stop offset="0.81" stop-color="#ae2612"/><stop offset="1" stop-color="#a81c08"/></linearGradient></defs><g id="Calque_2" data-name="Calque 2"><g id="Calque_1-2" data-name="Calque 1"><path class="cls-1" d="M27.09,28.55H20.41L15.49,18.34c-2.69,1.45-4.22,4.83-6.93,7a16,16,0,0,1-5,2.83,19.71,19.71,0,0,1-3,.76C.23,29,.05,29,0,28.9s0-.12.3-.25a16.08,16.08,0,0,0,2.3-1.18,3.15,3.15,0,0,0,1.55-1.93c-.26-1-2.14-3-.22-6.77.69-1.35,1.29-2.33,1.72-3.3a14.37,14.37,0,0,0,1-3.87c0-.07,0-.07.06,0,1,1,4.56,4.67,4,8.37A22.5,22.5,0,0,0,15,17.36c1-.79,1.67-1.61,2.76-1.63s1,.44,1.81.54a1.3,1.3,0,0,0,.62-.08c.06,0,0-.1,0-.11-1.05-.26-1.3-1.11-2.66-1.11s-2.18,1.12-2.91,1.58L11.19,9.42c-1.44-3-1-5.16,2.16-9.42L27.09,28.55Z"/></g></g></svg>