<?xml version="1.0" encoding="utf-8"?>
<!-- Generator: Adobe Illustrator 25.0.0, SVG Export Plug-In . SVG Version: 6.00 Build 0)  -->
<svg version="1.1" xmlns="http://www.w3.org/2000/svg" xmlns:xlink="http://www.w3.org/1999/xlink" x="0px" y="0px"
	 viewBox="0 0 611.5 179.14" style="enable-background:new 0 0 611.5 179.14;" xml:space="preserve">
<style type="text/css">
	.st0{fill:#050033;}
	.st1{fill:#000000;}
	.st2{fill:#000000;stroke:#000000;stroke-width:0.1884;}
	.st3{fill-rule:evenodd;clip-rule:evenodd;fill:#000000;}
</style>
<g id="Fond">
</g>
<g id="Logos">
	<g>
		<path class="st1" d="M241.93,36.99v54.18c0,9.62-0.01,13.36-10.94,13.55c0,0.18,0,0.19,0,0.37c1.6,0,29.51,0,31.1,0
			c0-0.18,0-0.19,0-0.37c-10.94-0.18-10.94-3.93-10.94-13.55v-47.5c0-9.62,0-13.36,10.94-13.55c0-0.18,0-0.19,0-0.37
			c-1.55,0-19.34,0-20.35,0c-0.45,0.99-28.14,61.5-28.14,61.5s-28.04-60.52-28.5-61.5c-1.01,0-18.92,0-20.47,0c0,0.18,0,0.19,0,0.38
			c9.89,0.22,10.95,4.34,10.95,13.43v47.61c0,9.62,0,13.36-10.95,13.55c0,0.18,0,0.19,0,0.37c1.57,0,23.6,0,25.17,0
			c0-0.18,0-0.19,0-0.37c-10.94-0.18-10.94-3.93-10.94-13.55V36.99l1.65,3.61c0,0,29.11,63.5,29.57,64.49c0.32,0,0.44,0,0.76,0
			c0.45-0.99,29.45-64.49,29.45-64.49L241.93,36.99z"/>
		<path class="st1" d="M357.74,29.75c-1.6,0-29.51,0-31.1,0c0,0.18,0,0.19,0,0.37c10.94,0.18,10.94,3.93,10.94,13.55v21.82H300
			V43.67c0-9.62,0-13.36,10.94-13.55c0-0.18,0-0.19,0-0.37c-1.59,0-29.5,0-31.1,0c0,0.18,0,0.19,0,0.37
			c10.93,0.18,10.94,3.93,10.94,13.55v47.5c0,9.62-0.01,13.36-10.94,13.55c0,0.18,0,0.19,0,0.37c1.59,0,29.5,0,31.1,0
			c0-0.18,0-0.19,0-0.37C300,104.53,300,100.79,300,91.17V67.95h37.58v23.22c0,9.62,0,13.36-10.94,13.55c0,0.18,0,0.19,0,0.37
			c1.59,0,29.51,0,31.1,0c0-0.18,0-0.19,0-0.37c-10.94-0.18-10.94-3.93-10.94-13.55v-47.5c0-9.62,0-13.36,10.94-13.55
			C357.74,29.95,357.74,29.94,357.74,29.75z"/>
		<path class="st1" d="M436.21,36.01c-8.66-5.77-20.44-6.25-31.76-6.25c0,0-27.31,0-28.94,0c0,0.18,0,0.19,0,0.37
			c10.93,0.18,10.94,3.93,10.94,13.55v47.5c0,9.62,0,13.36-10.94,13.55c0,0.18,0,0.19,0,0.37c1.65,0,34.99,0,34.99,0
			c12.87,0,23.48-3.9,30.69-11.28c6.52-6.67,10.11-16.17,10.11-26.74C451.3,53.77,445.8,42.44,436.21,36.01z M432.02,92.13
			c-5.64,6.87-13.73,10.5-23.38,10.5c-3.83,0-7.97-0.52-12.31-1.54l-0.67-0.16V34.06l0.63-0.18c3.92-1.1,7.92-1.66,11.88-1.66
			c9.86,0,18.06,3.57,23.74,10.32c5.29,6.3,8.09,14.9,8.09,24.89C440,77.08,437.16,85.86,432.02,92.13z"/>
		<path class="st1" d="M162.56,133.02v12.73c0,2.24-0.01,3.12-2.42,3.16c0,0.03,0,0.03,0,0.06c0.39,0,6.44,0,6.83,0
			c0-0.03,0-0.03,0-0.06c-2.41-0.05-2.42-0.92-2.42-3.16v-11.06c0-2.24,0.01-3.12,2.42-3.17c0-0.03,0-0.03,0-0.06
			c-0.38,0-4.2,0-4.46,0c-0.11,0.25-6.25,14.36-6.25,14.36s-6.21-14.11-6.32-14.36c-0.25,0-4.1,0-4.49,0c0,0.03,0,0.03,0,0.07
			c2.17,0.06,2.42,1.02,2.42,3.13v11.09c0,2.24-0.01,3.12-2.42,3.16c0,0.03,0,0.03,0,0.06c0.39,0,5.13,0,5.52,0
			c0-0.03,0-0.03,0-0.06c-2.42-0.05-2.43-0.92-2.43-3.16v-12.73l0.41,0.94c0,0,6.43,14.76,6.54,15.02c0.06,0,0.07,0,0.13,0
			c0.11-0.26,6.52-15.02,6.52-15.02L162.56,133.02z"/>
		<path class="st1" d="M169.1,140.22c0,5.23,3.49,9.16,8.13,9.16c4.63,0,8.13-3.94,8.13-9.16c0-5.22-3.49-9.16-8.13-9.16
			C172.6,131.06,169.1,135,169.1,140.22z M182.91,140.22c0,2.59-0.55,8.62-5.68,8.62c-5.12,0-5.67-6.03-5.67-8.62
			c0-2.59,0.55-8.62,5.67-8.62C182.35,131.6,182.91,137.63,182.91,140.22z"/>
		<g>
			<path class="st1" d="M192.45,129.33c0.65,0,1.17-0.56,1.17-1.25c0-0.69-0.53-1.25-1.17-1.25c-0.66,0-1.18,0.55-1.18,1.25
				C191.27,128.76,191.8,129.33,192.45,129.33z"/>
			<path class="st1" d="M196.85,129.33c0.65,0,1.17-0.56,1.17-1.25c0-0.69-0.53-1.25-1.17-1.25c-0.66,0-1.18,0.55-1.18,1.25
				C195.68,128.76,196.21,129.33,196.85,129.33z"/>
			<path class="st1" d="M201.56,144.91c-1.34,2.39-2.25,3.53-4.56,3.53h-3.5c-1.23,0-1.61-0.37-1.61-1.57v-6.78h3.64
				c2.04,0,2.92,0.26,3.17,2.65c0.03,0,0.03,0,0.06,0c0-0.39,0-5.44,0-5.83c-0.03,0-0.03,0-0.06,0c-0.2,2.36-1.14,2.63-3.18,2.63
				h-3.64v-7.53h4.57c2.41,0,3.26,0.24,3.78,2.95c0.05,0,0.05,0,0.11,0c-0.02-0.38-0.19-3.16-0.21-3.5c-0.39,0-12.25,0-12.66,0
				c0,0.03,0,0.03,0,0.06c2.41,0.05,2.42,0.92,2.42,3.17v11.06c0,2.24-0.01,3.12-2.42,3.16c0,0.03,0,0.03,0,0.06
				c0.41,0,12.53,0,12.84,0c0.09-0.26,1.15-3.59,1.3-4.07C201.6,144.91,201.59,144.91,201.56,144.91z"/>
		</g>
		<path class="st1" d="M217.49,135.23c0.03,0,0.03,0,0.05,0c-0.02-0.38-0.15-3.42-0.16-3.77c-0.4,0-13.1,0-13.49,0
			c-0.01,0.35-0.14,3.39-0.16,3.77c0.02,0,0.03,0,0.05,0c0.21-2.04,1.22-3.03,3.1-3.03h2.76v13.55c0,2.24-0.01,3.12-2.42,3.16
			c0,0.03,0,0.03,0,0.06c0.39,0,6.43,0,6.83,0c0-0.03,0-0.03,0-0.06c-2.41-0.05-2.42-0.92-2.42-3.16V132.2h2.76
			C216.27,132.2,217.28,133.2,217.49,135.23z"/>
		<path class="st1" d="M243.35,131.46c-0.39,0-6.44,0-6.83,0c0,0.03,0,0.03,0,0.06c2.42,0.05,2.42,0.92,2.42,3.17v5.09h-8.36v-5.09
			c0-2.24,0.01-3.12,2.42-3.17c0-0.03,0-0.03,0-0.06c-0.4,0-6.44,0-6.83,0c0,0.03,0,0.03,0,0.06c2.41,0.05,2.42,0.92,2.42,3.17
			v11.06c0,2.24-0.01,3.12-2.42,3.16c0,0.03,0,0.03,0,0.06c0.39,0,6.44,0,6.83,0c0-0.03,0-0.03,0-0.06
			c-2.41-0.05-2.42-0.92-2.42-3.16v-5.42h8.36v5.42c0,2.24-0.01,3.12-2.42,3.16c0,0.03,0,0.03,0,0.06c0.4,0,6.44,0,6.83,0
			c0-0.03,0-0.03,0-0.06c-2.41-0.05-2.42-0.92-2.42-3.16v-11.06c0-2.24,0.01-3.12,2.42-3.17
			C243.35,131.49,243.35,131.49,243.35,131.46z"/>
		<path class="st1" d="M259.09,144.91c-1.34,2.39-2.25,3.53-4.56,3.53h-3.5c-1.23,0-1.61-0.37-1.61-1.57v-6.78h3.64
			c2.19,0,2.94,0.39,3.17,2.65c0.03,0,0.03,0,0.06,0c0-0.39,0-5.44,0-5.83c-0.03,0-0.03,0-0.06,0c-0.2,2.36-1.14,2.63-3.18,2.63
			h-3.64v-7.53H254c2.41,0,3.26,0.24,3.78,2.95c0.05,0,0.05,0,0.11,0c-0.02-0.38-0.19-3.16-0.21-3.5c-0.39,0-12.25,0-12.67,0
			c0,0.03,0,0.03,0,0.06c2.42,0.05,2.42,0.92,2.42,3.17v11.06c0,2.24-0.01,3.12-2.42,3.16c0,0.03,0,0.03,0,0.06
			c0.41,0,12.54,0,12.84,0c0.08-0.26,1.15-3.59,1.3-4.07C259.13,144.91,259.12,144.91,259.09,144.91z"/>
		<path class="st1" d="M278.37,131.52c0-0.03,0-0.03,0-0.06c-0.39,0-5.13,0-5.51,0c0,0.03,0,0.03,0,0.06
			c2.41,0.05,2.42,0.92,2.42,3.17v10.68l-0.38-0.49c0,0-10.25-13.25-10.37-13.42c-0.19,0-3.93,0-4.31,0c0,0.03,0,0.03,0,0.07
			c1.59,0.05,2.37,0.68,3.33,1.95l0.04,0.06v12.22c0,2.24-0.01,3.12-2.42,3.16c0,0.03,0,0.03,0,0.06c0.39,0,5.13,0,5.52,0
			c0-0.03,0-0.03,0-0.06c-2.41-0.05-2.42-0.92-2.42-3.16v-11.38l0.37,0.48c0,0,11.05,14.26,11.18,14.42c0.05,0,0.07,0,0.14,0
			c0-0.42,0-14.58,0-14.58C275.95,132.45,275.96,131.57,278.37,131.52z"/>
		<path class="st1" d="M297.22,131.52c0-0.03,0-0.03,0-0.06c-0.39,0-5.13,0-5.51,0c0,0.03,0,0.03,0,0.06
			c2.41,0.05,2.42,0.92,2.42,3.17v10.68l-0.38-0.49c0,0-10.25-13.25-10.37-13.42c-0.19,0-3.93,0-4.31,0c0,0.03,0,0.03,0,0.07
			c1.6,0.05,2.37,0.68,3.33,1.95l0.04,0.06v12.22c0,2.24-0.01,3.12-2.42,3.16c0,0.03,0,0.03,0,0.06c0.39,0,5.13,0,5.52,0
			c0-0.03,0-0.03,0-0.06c-2.41-0.05-2.42-0.92-2.42-3.16v-11.38l0.37,0.48c0,0,11.05,14.26,11.18,14.42c0.05,0,0.07,0,0.14,0
			c0-0.42,0-14.58,0-14.58C294.81,132.45,294.81,131.57,297.22,131.52z"/>
		<path class="st1" d="M312.79,144.91c-1.34,2.39-2.25,3.53-4.56,3.53h-3.5c-1.23,0-1.61-0.37-1.61-1.57v-6.78h3.64
			c2.19,0,2.94,0.39,3.18,2.65c0.03,0,0.03,0,0.05,0c0-0.39,0-5.44,0-5.83c-0.03,0-0.03,0-0.05,0c-0.21,2.36-1.14,2.63-3.18,2.63
			h-3.64v-7.53h4.57c2.41,0,3.26,0.24,3.79,2.95c0.05,0,0.05,0,0.11,0c-0.02-0.38-0.18-3.16-0.2-3.5c-0.39,0-12.26,0-12.67,0
			c0,0.03,0,0.03,0,0.06c2.41,0.05,2.42,0.92,2.42,3.17v11.06c0,2.24-0.01,3.12-2.42,3.16c0,0.03,0,0.03,0,0.06
			c0.41,0,12.54,0,12.84,0c0.08-0.26,1.15-3.59,1.3-4.07C312.82,144.91,312.81,144.91,312.79,144.91z"/>
		<path class="st1" d="M321.61,138.84c-2.15-1.18-4.18-2.3-4.18-4.15c0-1.8,1.64-3.01,3.18-3.01c2.72,0,4.68,2.06,4.95,5.15
			c0.03,0,0.03,0,0.06,0c0-0.39,0-5.39,0-5.77c-0.04,0-0.04,0-0.07,0c-0.09,0.43-0.3,1.03-1.05,1.03c-0.27,0-0.6-0.14-1-0.31
			c0,0-0.54-0.22-0.55-0.22c-0.76-0.34-1.49-0.5-2.23-0.5c-2.66,0-4.83,2.05-4.83,4.58c0,2.74,2.48,4.15,4.87,5.53
			c2.15,1.24,4.19,2.4,4.19,4.45c0,2.16-1.87,3.14-3.61,3.14c-0.79,0-4.7-0.26-5.24-5.09c-0.03,0-0.03,0-0.06,0
			c0,0.39,0,5.33,0,5.72c0.03,0,0.03,0,0.05,0c0.06-0.4,0.22-1,0.97-1c0.54,0,0.98,0.17,1.51,0.36c0,0,0.39,0.14,0.4,0.14
			c0.58,0.23,1.4,0.5,2.63,0.5c2.99,0,5.17-2.09,5.17-4.96C326.76,141.67,324.14,140.23,321.61,138.84z"/>
		<path class="st1" d="M336.19,138.84c-2.15-1.18-4.18-2.3-4.18-4.15c0-1.8,1.64-3.01,3.18-3.01c2.71,0,4.68,2.06,4.95,5.15
			c0.03,0,0.03,0,0.06,0c0-0.39,0-5.39,0-5.77c-0.03,0-0.04,0-0.07,0c-0.09,0.43-0.3,1.03-1.05,1.03c-0.28,0-0.6-0.13-1-0.31
			c0,0-0.54-0.22-0.55-0.22c-0.76-0.34-1.48-0.5-2.23-0.5c-2.66,0-4.83,2.05-4.83,4.58c0,2.74,2.48,4.15,4.87,5.53
			c2.16,1.24,4.19,2.4,4.19,4.45c0,2.16-1.87,3.14-3.62,3.14c-0.79,0-4.69-0.26-5.23-5.09c-0.03,0-0.03,0-0.06,0
			c0,0.39,0,5.33,0,5.72c0.03,0,0.03,0,0.06,0c0.05-0.4,0.22-1,0.97-1c0.53,0,0.98,0.17,1.51,0.36c0,0,0.39,0.14,0.41,0.15
			c0.53,0.22,1.37,0.5,2.62,0.5c2.99,0,5.17-2.09,5.17-4.96C341.34,141.67,338.72,140.23,336.19,138.84z"/>
		<path class="st1" d="M361.24,131.54c0-0.04,0-0.04,0-0.08c-0.39,0-5.13,0-5.51,0c0,0.03,0,0.04,0,0.07
			c1.41,0.08,1.72,0.85,1.72,1.5c0,0.65-0.57,1.59-0.91,2.15l-0.04,0.08l-3.35,5.56c0,0-3.98-6.46-3.98-6.46l-0.09-0.16
			c-0.22-0.38-0.5-0.85-0.5-1.28c0-1.26,1.31-1.39,1.98-1.41c0-0.03,0-0.03,0-0.06c-0.4,0-6.46,0-6.85,0c0,0.04,0,0.04,0,0.07
			c0.9,0.09,1.84,0.74,2.44,1.71l5.31,8.51v3.99c0,2.24-0.01,3.12-2.42,3.16c0,0.03,0,0.03,0,0.06c0.39,0,6.43,0,6.83,0
			c0-0.03,0-0.03,0-0.06c-2.41-0.05-2.42-0.92-2.42-3.16v-4.24l4.36-7.24C358.57,133,359.54,131.65,361.24,131.54z"/>
		<path class="st1" d="M382.79,132.91c-1.91-1.34-4.51-1.45-7.01-1.45c0,0-5.97,0-6.37,0c0,0.03,0,0.03,0,0.06
			c2.41,0.05,2.42,0.92,2.42,3.17v11.06c0,2.24-0.01,3.12-2.42,3.16c0,0.03,0,0.03,0,0.06c0.41,0,7.71,0,7.71,0
			c5.47,0,9-3.47,9-8.84C386.12,137.04,384.9,134.41,382.79,132.91z M376.71,148.43c-0.86,0-1.75-0.12-2.73-0.36l-0.17-0.04v-15.59
			l0.16-0.05c0.87-0.26,1.76-0.39,2.64-0.39c4.29,0,7.06,3.22,7.06,8.21C383.67,144.31,381.51,148.43,376.71,148.43z"/>
		<path class="st1" d="M395.24,131.46c-0.4,0-6.43,0-6.83,0c0,0.03,0,0.03,0,0.06c2.41,0.05,2.42,0.92,2.42,3.17v11.06
			c0,2.24-0.01,3.12-2.42,3.16c0,0.03,0,0.03,0,0.06c0.4,0,6.43,0,6.83,0c0-0.03,0-0.03,0-0.06c-2.42-0.05-2.42-0.92-2.42-3.16
			v-11.06c0-2.24,0.01-3.12,2.42-3.17C395.24,131.49,395.24,131.49,395.24,131.46z"/>
		<path class="st1" d="M396.85,148.89c0,0.04,0,0.05,0,0.09c0.38,0,4.54,0,4.92,0c0-0.04,0-0.04,0-0.08
			c-0.86-0.08-1.98-0.25-1.98-1.39c0-0.54,0.34-1.34,0.58-1.9l1.08-2.66h6.88c0,0,0.98,2.38,0.98,2.39l0.11,0.27
			c0.22,0.56,0.52,1.32,0.52,1.86c0,1.15-0.87,1.36-1.75,1.42c0,0.03,0,0.03,0,0.07c0.39,0,5.9,0,6.29,0c0-0.04,0-0.05,0-0.09
			c-1.77-0.18-2.34-1.58-2.92-3.08l-0.1-0.26c0,0-5.63-14.23-5.74-14.5c-0.07,0-0.09,0-0.17,0c-0.59,1.46-6.08,14.99-6.08,14.99
			C398.76,147.83,398.19,148.68,396.85,148.89z M404.75,134.88l0.2-0.49l3.23,8.03h-6.52L404.75,134.88z"/>
		<path class="st1" d="M432.25,139.69c0-0.03,0-0.04,0-0.07c-0.39,0-5.95,0-6.34,0c0,0.03,0,0.03,0,0.06
			c2.41,0.05,2.42,0.93,2.42,3.17v4.97l-0.09,0.07c-1.11,0.75-2.57,1.01-3.57,1.01c-4.02,0-6.84-3.69-6.84-8.97
			c0-4.17,2.01-8.38,6.5-8.38c2.93,0,4.9,1.6,5.85,4.74c0.03,0,0.04,0,0.08,0c-0.03-0.41-0.38-4.88-0.41-5.23c-0.03,0-0.03,0-0.06,0
			c-0.04,0.47-0.17,1.14-0.85,1.14c-0.26,0-0.7-0.17-1.25-0.39c0,0-0.41-0.16-0.41-0.16c-0.82-0.3-1.75-0.58-3.1-0.58
			c-6.07,0-8.8,5.53-8.8,9.46c0,3.29,1.96,8.86,9.29,8.86c1.98,0,3.93-0.52,5.65-1.49c0-0.26,0-5.48,0-5.48
			C430.31,140.57,430.6,139.76,432.25,139.69z"/>
		<path class="st1" d="M447.83,144.91c-1.34,2.39-2.25,3.53-4.56,3.53h-3.5c-1.23,0-1.61-0.37-1.61-1.57v-6.78h3.64
			c2.19,0,2.94,0.39,3.18,2.65c0.03,0,0.03,0,0.05,0c0-0.39,0-5.44,0-5.83c-0.03,0-0.03,0-0.05,0c-0.21,2.36-1.14,2.63-3.18,2.63
			h-3.64v-7.53h4.56c2.41,0,3.26,0.24,3.78,2.95c0.05,0,0.06,0,0.11,0c-0.02-0.38-0.18-3.16-0.2-3.5c-0.39,0-12.25,0-12.67,0
			c0,0.03,0,0.03,0,0.06c2.41,0.05,2.42,0.92,2.42,3.17v11.06c0,2.24-0.01,3.12-2.42,3.16c0,0.03,0,0.03,0,0.06
			c0.41,0,12.54,0,12.84,0c0.08-0.26,1.15-3.59,1.3-4.07C447.87,144.91,447.86,144.91,447.83,144.91z"/>
		<path class="st1" d="M450.21,140.22c0,5.23,3.49,9.16,8.13,9.16c4.63,0,8.13-3.94,8.13-9.16c0-5.22-3.49-9.16-8.13-9.16
			C453.71,131.06,450.21,135,450.21,140.22z M464.02,140.22c0,2.59-0.55,8.62-5.67,8.62c-5.12,0-5.68-6.03-5.68-8.62
			c0-2.59,0.55-8.62,5.68-8.62C463.47,131.6,464.02,137.63,464.02,140.22z"/>
		<rect x="145.03" y="118.11" class="st2" width="321.24" height="0.51"/>
	</g>
</g>
</svg>
