<svg id="svg8" xmlns="http://www.w3.org/2000/svg" width="166.46mm" height="128.39mm" viewBox="0 0 471.86 363.94">
  <defs>
    <style>
      .cls-1 {
        fill: #000;
      }
    </style>
  </defs>
  <path id="path72" class="cls-1" d="M175.67,0l.94,339.7,76.95,24.19L252.77,79c0-13.31,5.89-22.28,15.49-19.18,12.56,3.43,15,15.71,15.07,29l.32,113.79c48,23,85.64-.25,85.47-61.31-.18-62.67-22.32-90.41-87.46-112.62C256,20.17,208.39,5.94,175.67,0"/>
  <path id="path76" class="cls-1" d="M268,314.22l123.53-44.43c14-5.06,16.15-12.19,4.74-15.88s-32-2.54-46,2.5L267.9,285.69l-.13-46.19,4.74-1.6s23.8-8.52,57.24-12.33,74.49.28,106.68,12.42c36.31,11.38,40.43,28.22,31.26,39.86s-31.74,20-31.74,20l-167.84,60.8Z"/>
  <path id="path80" class="cls-1" d="M35.51,310.17C-1.73,299.78-8,278,8.91,265.37c15.69-11.68,42.33-20.48,42.33-20.48l110.09-39.46.12,44.63L82.23,278.68c-14,5.05-16.11,12.19-4.76,15.85s32,2.6,46.06-2.49l38-13.89.11,40c-2.43.42-5.1.85-7.57,1.26a249.46,249.46,0,0,1-118.56-9.2"/>
</svg>
