<?xml version="1.0" encoding="utf-8"?>
<!-- Generator: Adobe Illustrator 25.0.0, SVG Export Plug-In . SVG Version: 6.00 Build 0)  -->
<svg version="1.1" xmlns="http://www.w3.org/2000/svg" xmlns:xlink="http://www.w3.org/1999/xlink" x="0px" y="0px"
	 viewBox="0 0 611.5 179.14" style="enable-background:new 0 0 611.5 179.14;" xml:space="preserve">
<style type="text/css">
	.st0{fill:#050033;}
	.st1{fill:#000000;}
	.st2{fill:#000000;stroke:#000000;stroke-width:0.1884;}
	.st3{fill-rule:evenodd;clip-rule:evenodd;fill:#000000;}
</style>
<g id="Fond">
</g>
<g id="Logos">
	<g>
		<polygon class="st1" points="146.5,127.96 136.4,59.39 136.04,59.39 125.69,127.96 104.42,127.96 118.72,50.52 153.42,50.52 
			167.64,127.96 		"/>
		<polygon class="st1" points="248.8,127.96 248.34,60.71 247.99,60.71 235.47,127.96 215.51,127.96 203.06,60.71 202.7,60.71 
			202.25,127.96 182.47,127.96 184.18,50.52 215.99,50.52 225.26,108.05 225.71,108.05 235,50.52 266.8,50.52 268.51,127.96 		"/>
		<path class="st1" d="M341.94,112.95c-2.13,15-16.82,17.62-27.21,17.62c-17.24,0-27.9-7.38-27.9-22.38l0.01-6.12h20.89l0.02,7.63
			c0,4.13,2.92,6.67,7.42,6.67c4.02,0,6.37-1.61,7.18-4.93c0.38-1.54,0.55-3.79-0.13-5.5c-3.84-9.63-30.99-14.35-34.28-29.98
			c-0.76-3.54-0.81-6.55-0.19-10.34c2.3-14.17,15.89-17.11,26.83-17.11c9.78,0,16.9,2.14,21.18,6.41c3.18,3.19,4.8,7.56,4.8,13.01
			v5.59h-19.54V68.6c0-4.22-2.62-6.66-6.84-6.66c-3.73,0-5.99,1.65-6.73,4.92c-0.15,0.69-0.3,2.3,0.1,3.89
			c2.09,8.59,31.12,13.83,34.3,29.61C342.26,102.39,342.83,106.71,341.94,112.95"/>
		<path class="st1" d="M414.3,105.92c0.03,1.45-0.11,4.35-0.19,5.09c-1.2,12.77-10.32,19.25-27.06,19.25
			c-16.8,0-25.93-6.49-27.12-19.25c-0.08-0.74-0.23-3.64-0.19-5.08V50.51h19.99v57.17c-0.02,1.28,0.04,2.23,0.17,2.88
			c0.25,1.27,1.52,5.41,7.15,5.41c5.63,0,6.89-4.13,7.16-5.39c0.11-0.67,0.17-1.67,0.17-2.9V50.51h19.92V105.92z"/>
		<polygon class="st1" points="500.41,127.16 472.6,127.16 453.93,65.83 453.62,65.83 454.66,127.16 435.27,127.16 435.27,50.52 
			464.25,50.52 481.51,109.44 481.92,109.44 480.89,50.52 500.41,50.52 		"/>
		<path class="st1" d="M65.75,48.18c9.13,0.2,15.9,2.29,20,6.39c3.21,3.22,4.84,7.63,4.84,13.13v5.66H70.87v-4.99
			c0-4.15-2.49-6.74-6.91-6.74c-3.71,0-6,1.68-6.74,4.98c-0.2,0.91-0.26,2.5,0.09,3.93c2.11,8.63,31.39,13.99,34.59,29.91
			c0.41,2.05,0.98,6.43,0.09,12.71c-1.82,12.84-13.11,17.8-27.48,17.8c-20.05,0-28.19-9.5-28.19-22.59l0.01-6.19h21.15l0.01,7.72
			c0,4.34,3.15,6.73,7.44,6.73c4.07,0,6.45-1.64,7.27-4.99c0.39-1.54,0.55-3.81-0.14-5.55c-3.91-9.81-31.27-14.4-34.63-30.27
			c-0.75-3.57-0.81-6.6-0.19-10.44c0.33-2.08,0.97-3.86,1.75-5.49l-0.02-0.05c4.1-8.33,13.83-11.68,25.64-11.68L65.75,48.18z"/>
		<path class="st1" d="M547.63,129.45c-13.77,0-26.07-5.16-27.34-19.23c-0.23-2.56-0.28-3.63-0.28-5.09V72.78
			c0-1.39,0.17-3.84,0.32-5.11c1.63-13.6,12.39-19.21,27.3-19.21c11.53,0,25.67,3.31,27.22,19.22c0.21,1.99,0.18,4.13,0.18,4.83
			v0.02v3.04h-19.93v-4.54V71c0-0.1-0.02-1.8-0.25-2.87c-0.32-1.62-1.71-5.38-7.38-5.38c-5.6,0-7.06,3.77-7.42,5.39
			c-0.21,0.89-0.31,2.17-0.31,3.59v35.16c-0.01,1.23,0.05,2.17,0.17,2.88c0.11,0.55,1.1,5.39,7.63,5.39c6.47,0,7.47-4.84,7.56-5.39
			c0.17-0.95,0.2-2.09,0.19-2.88V96h-7.84V84.26h27.72v20.87c-0.01,1.42-0.03,2.48-0.27,5.09c-0.34,3.69-1.49,6.82-3.32,9.49
			c-4.58,6.69-13.26,9.7-23.99,9.7"/>
	</g>
</g>
</svg>
