<?xml version="1.0" encoding="utf-8"?>
<!-- Generator: Adobe Illustrator 25.4.1, SVG Export Plug-In . SVG Version: 6.00 Build 0)  -->
<svg version="1.1" id="Calque_1" xmlns="http://www.w3.org/2000/svg" xmlns:xlink="http://www.w3.org/1999/xlink" x="0px" y="0px"
	 viewBox="0 0 264 222" style="enable-background:new 0 0 264 222;" xml:space="preserve">
<style type="text/css">
	.st0{fill:#D0CED0;}
	.st1{fill:#D13324;}
</style>
<g id="Calque_2_00000093176337182936277980000005354036049588554138_">
	<g id="Calque_1-2">
		<path class="st0" d="M7,222c10.3-14.7,20.5-29.5,30.9-44.1c36.3-51.2,72.6-102.4,108.9-153.6c13.1-18.5,35.2-26.4,56.8-20.1
			c20.7,6,35.5,25.4,36,47.7c0.2,11.6-3.6,22.1-10.4,31.7c-32.7,45.8-65.3,91.7-97.8,137.6c-0.2,0.3-0.3,0.6-0.4,0.9H7z"/>
		<path class="st1" d="M152,222c21.8-30.7,43.6-61.3,65.4-91.9c6-8.5,14.4-12.4,24.7-10.7c9.4,1.6,16,7.1,19.1,16.3
			c2.8,8.1,1.3,15.7-3.7,22.7c-14.1,19.8-28.2,39.6-42.3,59.4c-0.8,1.4-1.6,2.8-2.2,4.3H152z"/>
	</g>
</g>
</svg>
