<?xml version="1.0" encoding="utf-8"?>
<!-- Generator: Adobe Illustrator 25.0.0, SVG Export Plug-In . SVG Version: 6.00 Build 0)  -->
<svg version="1.1" xmlns="http://www.w3.org/2000/svg" xmlns:xlink="http://www.w3.org/1999/xlink" x="0px" y="0px"
	 viewBox="0 0 611.5 179.14" style="enable-background:new 0 0 611.5 179.14;" xml:space="preserve">
<style type="text/css">
	.st0{fill:#050033;}
	.st1{fill:#000000;}
	.st2{fill:#000000;stroke:#000000;stroke-width:0.1884;}
	.st3{fill-rule:evenodd;clip-rule:evenodd;fill:#000000;}
</style>
<g id="Fond">
</g>
<g id="Logos">
	<g>
		<path class="st1" d="M147.46,21.75c-37.45,0-67.81,30.36-67.81,67.81c0,37.45,30.36,67.82,67.81,67.82
			c37.45,0,67.81-30.36,67.81-67.82C215.28,52.12,184.91,21.75,147.46,21.75 M178.56,119.57c-1.22,2-3.82,2.62-5.81,1.41
			c-15.93-9.73-35.97-11.93-59.58-6.54c-2.27,0.52-4.54-0.9-5.06-3.18c-0.52-2.27,0.9-4.54,3.18-5.06
			c25.84-5.91,47.99-3.37,65.87,7.56C179.15,114.97,179.78,117.57,178.56,119.57 M186.86,101.1c-1.54,2.49-4.79,3.27-7.27,1.74
			c-18.22-11.2-46.01-14.45-67.58-7.9c-2.79,0.84-5.75-0.73-6.6-3.52c-0.84-2.79,0.73-5.74,3.52-6.59
			c24.63-7.47,55.25-3.85,76.18,9.01C187.61,95.36,188.39,98.62,186.86,101.1 M187.58,81.87c-21.86-12.98-57.92-14.18-78.78-7.84
			c-3.35,1.02-6.89-0.87-7.91-4.22c-1.01-3.35,0.87-6.9,4.23-7.91c23.95-7.27,63.77-5.87,88.94,9.07c3.02,1.79,4,5.68,2.22,8.69
			C194.48,82.67,190.58,83.66,187.58,81.87"/>
		<path class="st1" d="M264.15,84.36c-11.71-2.79-13.79-4.75-13.79-8.87c0-3.89,3.66-6.51,9.11-6.51c5.28,0,10.51,1.99,16,6.08
			c0.17,0.12,0.38,0.17,0.58,0.14c0.21-0.03,0.39-0.14,0.51-0.31l5.72-8.06c0.23-0.33,0.17-0.79-0.15-1.04
			c-6.53-5.24-13.89-7.79-22.48-7.79c-12.64,0-21.47,7.59-21.47,18.44c0,11.64,7.62,15.76,20.78,18.94
			c11.21,2.58,13.1,4.74,13.1,8.61c0,4.28-3.82,6.95-9.98,6.95c-6.83,0-12.41-2.3-18.64-7.7c-0.16-0.13-0.37-0.19-0.56-0.18
			c-0.21,0.02-0.4,0.11-0.53,0.27l-6.41,7.63c-0.27,0.32-0.23,0.79,0.08,1.06c7.25,6.48,16.18,9.9,25.81,9.9
			c13.63,0,22.43-7.44,22.43-18.96C284.23,93.22,278.41,87.83,264.15,84.36"/>
		<path class="st1" d="M315.05,72.81c-5.9,0-10.75,2.33-14.74,7.09v-5.37c0-0.42-0.35-0.77-0.77-0.77h-10.48
			c-0.42,0-0.76,0.34-0.76,0.77v59.6c0,0.43,0.34,0.77,0.76,0.77h10.48c0.42,0,0.77-0.34,0.77-0.77v-18.81
			c3.99,4.48,8.84,6.67,14.74,6.67c10.97,0,22.08-8.45,22.08-24.59C337.13,81.26,326.02,72.81,315.05,72.81 M324.94,97.41
			c0,8.22-5.07,13.96-12.32,13.96c-7.17,0-12.58-6-12.58-13.96c0-7.96,5.41-13.96,12.58-13.96
			C319.76,83.45,324.94,89.32,324.94,97.41"/>
		<path class="st1" d="M365.6,72.81c-14.13,0-25.2,10.88-25.2,24.77c0,13.74,10.99,24.51,25.03,24.51
			c14.18,0,25.29-10.85,25.29-24.68C390.71,83.62,379.68,72.81,365.6,72.81 M365.6,111.45c-7.51,0-13.18-6.04-13.18-14.04
			c0-8.04,5.47-13.88,13.01-13.88c7.57,0,13.27,6.04,13.27,14.05C378.7,105.62,373.19,111.45,365.6,111.45"/>
		<path class="st1" d="M420.89,73.77h-11.54v-11.8c0-0.42-0.34-0.77-0.76-0.77H398.1c-0.42,0-0.77,0.35-0.77,0.77v11.8h-5.04
			c-0.42,0-0.76,0.34-0.76,0.77v9.01c0,0.42,0.34,0.77,0.76,0.77h5.04v23.32c0,9.42,4.69,14.2,13.94,14.2
			c3.76,0,6.88-0.78,9.82-2.44c0.24-0.14,0.39-0.39,0.39-0.66v-8.58c0-0.27-0.14-0.52-0.36-0.65c-0.23-0.14-0.51-0.15-0.75-0.03
			c-2.02,1.01-3.97,1.48-6.15,1.48c-3.36,0-4.87-1.53-4.87-4.95V84.32h11.54c0.42,0,0.76-0.34,0.76-0.77v-9.01
			C421.65,74.11,421.31,73.77,420.89,73.77"/>
		<path class="st1" d="M461.08,73.82v-1.45c0-4.26,1.64-6.16,5.3-6.16c2.19,0,3.94,0.43,5.91,1.09c0.24,0.08,0.49,0.04,0.69-0.11
			c0.2-0.15,0.32-0.38,0.32-0.63v-8.83c0-0.34-0.22-0.64-0.54-0.74c-2.08-0.62-4.74-1.25-8.72-1.25c-9.68,0-14.8,5.46-14.8,15.77
			v2.22h-5.04c-0.42,0-0.77,0.35-0.77,0.77v9.06c0,0.42,0.35,0.77,0.77,0.77h5.04v35.96c0,0.42,0.34,0.77,0.76,0.77h10.48
			c0.42,0,0.77-0.34,0.77-0.77V84.32h9.79l14.99,35.95c-1.7,3.78-3.38,4.53-5.66,4.53c-1.85,0-3.79-0.55-5.78-1.64
			c-0.19-0.1-0.41-0.12-0.61-0.06c-0.2,0.07-0.37,0.22-0.45,0.42l-3.55,7.8c-0.17,0.37-0.03,0.8,0.33,0.99
			c3.71,2.01,7.06,2.87,11.2,2.87c7.74,0,12.02-3.61,15.79-13.31l18.19-47c0.09-0.24,0.06-0.5-0.08-0.71
			c-0.14-0.21-0.38-0.33-0.63-0.33h-10.92c-0.32,0-0.62,0.21-0.73,0.51l-11.18,31.94l-12.25-31.96c-0.11-0.3-0.4-0.49-0.72-0.49
			H461.08z"/>
		<path class="st1" d="M437.78,73.77H427.3c-0.42,0-0.77,0.34-0.77,0.77v45.74c0,0.42,0.34,0.77,0.77,0.77h10.48
			c0.42,0,0.77-0.34,0.77-0.77V74.54C438.55,74.11,438.2,73.77,437.78,73.77"/>
		<path class="st1" d="M432.59,52.94c-4.16,0-7.52,3.36-7.52,7.51c0,4.16,3.37,7.53,7.52,7.53c4.15,0,7.52-3.37,7.52-7.53
			C440.11,56.31,436.74,52.94,432.59,52.94"/>
		<path class="st1" d="M524.44,88.48c-4.15,0-7.38-3.33-7.38-7.38c0-4.04,3.27-7.42,7.41-7.42c4.15,0,7.38,3.33,7.38,7.38
			C531.86,85.1,528.59,88.48,524.44,88.48 M524.48,74.41c-3.78,0-6.64,3-6.64,6.68s2.84,6.64,6.6,6.64c3.78,0,6.64-3,6.64-6.68
			C531.08,77.38,528.24,74.41,524.48,74.41 M526.11,81.81l2.09,2.92h-1.76l-1.88-2.68h-1.61v2.68h-1.47v-7.74h3.45
			c1.8,0,2.98,0.92,2.98,2.47C527.91,80.73,527.18,81.51,526.11,81.81 M524.87,78.32h-1.92v2.45h1.92c0.96,0,1.53-0.47,1.53-1.22
			C526.4,78.75,525.83,78.32,524.87,78.32"/>
	</g>
</g>
</svg>
